<?xml version="1.0" encoding="utf-8"?>
<!-- Generator: Adobe Illustrator 16.0.0, SVG Export Plug-In . SVG Version: 6.00 Build 0)  -->
<!DOCTYPE svg PUBLIC "-//W3C//DTD SVG 1.1//EN" "http://www.w3.org/Graphics/SVG/1.1/DTD/svg11.dtd">
<svg version="1.1" id="Layer_1" xmlns="http://www.w3.org/2000/svg" xmlns:xlink="http://www.w3.org/1999/xlink" x="0px" y="0px"
	 width="1400px" height="980px" viewBox="0 0 1400 980" enable-background="new 0 0 1400 980" xml:space="preserve">
<g>
	<g>
		<rect fill="#FFFFFF" width="1399.993" height="636.049"/>
		<rect y="636.049" fill="#716F7D" width="1399.993" height="343.951"/>
	</g>
	<g>
		<path fill="#3C3C3C" d="M1045.264,129.602H373.041c-11.945,0-21.626,9.684-21.626,21.627v418.785v5.922
			c0,11.943,9.682,21.627,21.626,21.627h260.456h156.719h255.049c11.945,0,21.627-9.684,21.627-21.627v-5.922V151.229
			C1066.891,139.285,1057.209,129.602,1045.264,129.602z"/>
		<path fill="#2A2A2A" d="M367.634,570.014V151.229c0-2.981,2.425-5.407,5.407-5.407h672.223c2.982,0,5.407,2.426,5.407,5.407
			v418.785H367.634z"/>
		<polygon fill="#BDBDBD" points="601.32,668.75 711.855,668.75 822.391,668.75 832.004,661.842 591.708,661.842 		"/>
		<path fill="#FFFFFF" d="M628.504,644.42c0,0-1.352,12.316-16.972,14.418l-19.824,3.004h240.296l-19.824-3.004
			c-15.62-2.102-16.972-14.418-16.972-14.418l-2.519-23.635l-161.298-3.471L628.504,644.42z"/>
		<polygon fill="#CCCCCC" points="631.392,617.314 792.689,620.785 790.215,597.563 633.496,597.563 		"/>
		<circle fill="#FFFFFF" cx="709.152" cy="583.436" r="7.5"/>
		<polygon fill="#6E6E6E" points="381.15,556.262 1037.154,556.262 1037.154,160.977 		"/>
		<polygon fill="#4D4D4D" points="381.15,160.977 381.15,556.262 1037.154,160.977 		"/>
	</g>
	<g>
		<polygon fill="#FFFFFF" points="551.262,765.592 549.512,765.592 506.413,765.592 506.413,910.406 917.668,910.406 
			917.668,765.592 		"/>
		<g>
			<path fill="#D1D3D4" d="M516.14,794.709c-1.162,0-2.108-0.943-2.108-2.105v-14.611c0-1.162,0.946-2.109,2.108-2.109h14.611
				c1.162,0,2.107,0.947,2.107,2.109v14.611c0,1.162-0.945,2.105-2.107,2.105H516.14z"/>
		</g>
		<g>
			<path fill="#D1D3D4" d="M543.083,794.709c-1.164,0-2.109-0.943-2.109-2.105v-14.611c0-1.162,0.945-2.109,2.109-2.109h14.61
				c1.162,0,2.107,0.947,2.107,2.109v14.611c0,1.162-0.945,2.105-2.107,2.105H543.083z"/>
		</g>
		<g>
			<path fill="#D1D3D4" d="M570.023,794.709c-1.161,0-2.106-0.943-2.106-2.105v-14.611c0-1.162,0.945-2.109,2.106-2.109h14.612
				c1.162,0,2.105,0.947,2.105,2.109v14.611c0,1.162-0.943,2.105-2.105,2.105H570.023z"/>
		</g>
		<g>
			<path fill="#D1D3D4" d="M596.966,794.709c-1.162,0-2.107-0.943-2.107-2.105v-14.611c0-1.162,0.945-2.109,2.107-2.109h14.611
				c1.162,0,2.107,0.947,2.107,2.109v14.611c0,1.162-0.945,2.105-2.107,2.105H596.966z"/>
		</g>
		<g>
			<path fill="#D1D3D4" d="M623.907,794.709c-1.161,0-2.106-0.943-2.106-2.105v-14.611c0-1.162,0.945-2.109,2.106-2.109h14.613
				c1.161,0,2.105,0.947,2.105,2.109v14.611c0,1.162-0.944,2.105-2.105,2.105H623.907z"/>
		</g>
		<g>
			<path fill="#D1D3D4" d="M650.85,794.709c-1.162,0-2.106-0.943-2.106-2.105v-14.611c0-1.162,0.944-2.109,2.106-2.109h14.612
				c1.162,0,2.107,0.947,2.107,2.109v14.611c0,1.162-0.945,2.105-2.107,2.105H650.85z"/>
		</g>
		<g>
			<path fill="#D1D3D4" d="M677.792,794.709c-1.162,0-2.107-0.943-2.107-2.105v-14.611c0-1.162,0.945-2.109,2.107-2.109h14.612
				c1.162,0,2.106,0.947,2.106,2.109v14.611c0,1.162-0.944,2.105-2.106,2.105H677.792z"/>
		</g>
		<g>
			<path fill="#D1D3D4" d="M704.734,794.709c-1.162,0-2.107-0.943-2.107-2.105v-14.611c0-1.162,0.945-2.109,2.107-2.109h14.612
				c1.161,0,2.106,0.947,2.106,2.109v14.611c0,1.162-0.945,2.105-2.106,2.105H704.734z"/>
		</g>
		<g>
			<path fill="#D1D3D4" d="M731.677,794.709c-1.163,0-2.107-0.943-2.107-2.105v-14.611c0-1.162,0.944-2.109,2.107-2.109h14.611
				c1.16,0,2.106,0.947,2.106,2.109v14.611c0,1.162-0.946,2.105-2.106,2.105H731.677z"/>
		</g>
		<g>
			<path fill="#D1D3D4" d="M758.617,794.709c-1.161,0-2.105-0.943-2.105-2.105v-14.611c0-1.162,0.944-2.109,2.105-2.109h14.614
				c1.161,0,2.105,0.947,2.105,2.109v14.611c0,1.162-0.944,2.105-2.105,2.105H758.617z"/>
		</g>
		<g>
			<path fill="#D1D3D4" d="M785.561,794.709c-1.161,0-2.106-0.943-2.106-2.105v-14.611c0-1.162,0.945-2.109,2.106-2.109h14.612
				c1.162,0,2.106,0.947,2.106,2.109v14.611c0,1.162-0.944,2.105-2.106,2.105H785.561z"/>
		</g>
		<g>
			<path fill="#D1D3D4" d="M812.502,794.709c-1.161,0-2.106-0.943-2.106-2.105v-14.611c0-1.162,0.945-2.109,2.106-2.109h14.612
				c1.162,0,2.106,0.947,2.106,2.109v14.611c0,1.162-0.944,2.105-2.106,2.105H812.502z"/>
		</g>
		<g>
			<path fill="#D1D3D4" d="M839.444,794.709c-1.162,0-2.106-0.943-2.106-2.105v-14.611c0-1.162,0.944-2.109,2.106-2.109h14.612
				c1.162,0,2.107,0.947,2.107,2.109v14.611c0,1.162-0.945,2.105-2.107,2.105H839.444z"/>
		</g>
		<g>
			<path fill="#D1D3D4" d="M866.386,794.709c-1.161,0-2.105-0.943-2.105-2.105v-14.611c0-1.162,0.944-2.109,2.105-2.109h14.613
				c1.162,0,2.105,0.947,2.105,2.109v14.611c0,1.162-0.943,2.105-2.105,2.105H866.386z"/>
		</g>
		<g>
			<path fill="#D1D3D4" d="M893.329,794.709c-1.162,0-2.106-0.943-2.106-2.105v-14.611c0-1.162,0.944-2.109,2.106-2.109h14.613
				c1.161,0,2.105,0.947,2.105,2.109v14.611c0,1.162-0.944,2.105-2.105,2.105H893.329z"/>
		</g>
		<g>
			<path fill="#D1D3D4" d="M516.14,821.061c-1.162,0-2.108-0.945-2.108-2.105v-14.613c0-1.162,0.946-2.107,2.108-2.107h14.611
				c1.162,0,2.107,0.945,2.107,2.107v14.613c0,1.16-0.945,2.105-2.107,2.105H516.14z"/>
		</g>
		<g>
			<path fill="#D1D3D4" d="M543.083,821.061c-1.164,0-2.109-0.945-2.109-2.105v-14.613c0-1.162,0.945-2.107,2.109-2.107h14.61
				c1.162,0,2.107,0.945,2.107,2.107v14.613c0,1.16-0.945,2.105-2.107,2.105H543.083z"/>
		</g>
		<g>
			<path fill="#D1D3D4" d="M570.023,821.061c-1.161,0-2.106-0.945-2.106-2.105v-14.613c0-1.162,0.945-2.107,2.106-2.107h14.612
				c1.162,0,2.105,0.945,2.105,2.107v14.613c0,1.16-0.943,2.105-2.105,2.105H570.023z"/>
		</g>
		<g>
			<path fill="#D1D3D4" d="M596.966,821.061c-1.162,0-2.107-0.945-2.107-2.105v-14.613c0-1.162,0.945-2.107,2.107-2.107h14.611
				c1.162,0,2.107,0.945,2.107,2.107v14.613c0,1.16-0.945,2.105-2.107,2.105H596.966z"/>
		</g>
		<g>
			<path fill="#D1D3D4" d="M623.907,821.061c-1.161,0-2.106-0.945-2.106-2.105v-14.613c0-1.162,0.945-2.107,2.106-2.107h14.613
				c1.161,0,2.105,0.945,2.105,2.107v14.613c0,1.16-0.944,2.105-2.105,2.105H623.907z"/>
		</g>
		<g>
			<path fill="#D1D3D4" d="M650.85,821.061c-1.162,0-2.106-0.945-2.106-2.105v-14.613c0-1.162,0.944-2.107,2.106-2.107h14.612
				c1.162,0,2.107,0.945,2.107,2.107v14.613c0,1.16-0.945,2.105-2.107,2.105H650.85z"/>
		</g>
		<g>
			<path fill="#D1D3D4" d="M677.792,821.061c-1.162,0-2.107-0.945-2.107-2.105v-14.613c0-1.162,0.945-2.107,2.107-2.107h14.612
				c1.162,0,2.106,0.945,2.106,2.107v14.613c0,1.16-0.944,2.105-2.106,2.105H677.792z"/>
		</g>
		<g>
			<path fill="#D1D3D4" d="M704.734,821.061c-1.162,0-2.107-0.945-2.107-2.105v-14.613c0-1.162,0.945-2.107,2.107-2.107h14.612
				c1.161,0,2.106,0.945,2.106,2.107v14.613c0,1.16-0.945,2.105-2.106,2.105H704.734z"/>
		</g>
		<g>
			<path fill="#D1D3D4" d="M731.677,821.061c-1.163,0-2.107-0.945-2.107-2.105v-14.613c0-1.162,0.944-2.107,2.107-2.107h14.611
				c1.16,0,2.106,0.945,2.106,2.107v14.613c0,1.16-0.946,2.105-2.106,2.105H731.677z"/>
		</g>
		<g>
			<path fill="#D1D3D4" d="M758.617,821.061c-1.161,0-2.105-0.945-2.105-2.105v-14.613c0-1.162,0.944-2.107,2.105-2.107h14.614
				c1.161,0,2.105,0.945,2.105,2.107v14.613c0,1.16-0.944,2.105-2.105,2.105H758.617z"/>
		</g>
		<g>
			<path fill="#D1D3D4" d="M839.444,821.061c-1.162,0-2.106-0.945-2.106-2.105v-14.613c0-1.162,0.944-2.107,2.106-2.107h14.612
				c1.162,0,2.107,0.945,2.107,2.107v14.613c0,1.16-0.945,2.105-2.107,2.105H839.444z"/>
		</g>
		<g>
			<path fill="#D1D3D4" d="M866.386,821.061c-1.161,0-2.105-0.945-2.105-2.105v-14.613c0-1.162,0.944-2.107,2.105-2.107h14.613
				c1.162,0,2.105,0.945,2.105,2.107v14.613c0,1.16-0.943,2.105-2.105,2.105H866.386z"/>
		</g>
		<g>
			<path fill="#D1D3D4" d="M893.329,821.061c-1.162,0-2.106-0.945-2.106-2.105v-14.613c0-1.162,0.944-2.107,2.106-2.107h14.613
				c1.161,0,2.105,0.945,2.105,2.107v14.613c0,1.16-0.944,2.105-2.105,2.105H893.329z"/>
		</g>
		<g>
			<path fill="#D1D3D4" d="M516.14,847.412c-1.162,0-2.108-0.945-2.108-2.107v-14.611c0-1.162,0.946-2.109,2.108-2.109h14.611
				c1.162,0,2.107,0.947,2.107,2.109v14.611c0,1.162-0.945,2.107-2.107,2.107H516.14z"/>
		</g>
		<g>
			<path fill="#D1D3D4" d="M543.083,847.412c-1.164,0-2.109-0.945-2.109-2.107v-14.611c0-1.162,0.945-2.109,2.109-2.109h14.61
				c1.162,0,2.107,0.947,2.107,2.109v14.611c0,1.162-0.945,2.107-2.107,2.107H543.083z"/>
		</g>
		<g>
			<path fill="#D1D3D4" d="M570.023,847.412c-1.161,0-2.106-0.945-2.106-2.107v-14.611c0-1.162,0.945-2.109,2.106-2.109h14.612
				c1.162,0,2.105,0.947,2.105,2.109v14.611c0,1.162-0.943,2.107-2.105,2.107H570.023z"/>
		</g>
		<g>
			<path fill="#D1D3D4" d="M596.966,847.412c-1.162,0-2.107-0.945-2.107-2.107v-14.611c0-1.162,0.945-2.109,2.107-2.109h14.611
				c1.162,0,2.107,0.947,2.107,2.109v14.611c0,1.162-0.945,2.107-2.107,2.107H596.966z"/>
		</g>
		<g>
			<path fill="#D1D3D4" d="M623.907,847.412c-1.161,0-2.106-0.945-2.106-2.107v-14.611c0-1.162,0.945-2.109,2.106-2.109h14.613
				c1.161,0,2.105,0.947,2.105,2.109v14.611c0,1.162-0.944,2.107-2.105,2.107H623.907z"/>
		</g>
		<g>
			<path fill="#D1D3D4" d="M650.85,847.412c-1.162,0-2.106-0.945-2.106-2.107v-14.611c0-1.162,0.944-2.109,2.106-2.109h14.612
				c1.162,0,2.107,0.947,2.107,2.109v14.611c0,1.162-0.945,2.107-2.107,2.107H650.85z"/>
		</g>
		<g>
			<path fill="#D1D3D4" d="M677.792,847.412c-1.162,0-2.107-0.945-2.107-2.107v-14.611c0-1.162,0.945-2.109,2.107-2.109h14.612
				c1.162,0,2.106,0.947,2.106,2.109v14.611c0,1.162-0.944,2.107-2.106,2.107H677.792z"/>
		</g>
		<g>
			<path fill="#D1D3D4" d="M704.734,847.412c-1.162,0-2.107-0.945-2.107-2.107v-14.611c0-1.162,0.945-2.109,2.107-2.109h14.612
				c1.161,0,2.106,0.947,2.106,2.109v14.611c0,1.162-0.945,2.107-2.106,2.107H704.734z"/>
		</g>
		<g>
			<path fill="#D1D3D4" d="M731.677,847.412c-1.163,0-2.107-0.945-2.107-2.107v-14.611c0-1.162,0.944-2.109,2.107-2.109h14.611
				c1.16,0,2.106,0.947,2.106,2.109v14.611c0,1.162-0.946,2.107-2.106,2.107H731.677z"/>
		</g>
		<g>
			<path fill="#D1D3D4" d="M758.617,847.412c-1.161,0-2.105-0.945-2.105-2.107v-14.611c0-1.162,0.944-2.109,2.105-2.109h14.614
				c1.161,0,2.105,0.947,2.105,2.109v14.611c0,1.162-0.944,2.107-2.105,2.107H758.617z"/>
		</g>
		<g>
			<path fill="#D1D3D4" d="M785.561,847.412c-1.161,0-2.106-0.945-2.106-2.107v-14.611c0-1.162,0.945-2.109,2.106-2.109h14.612
				c1.162,0,2.106,0.947,2.106,2.109v14.611c0,1.162-0.944,2.107-2.106,2.107H785.561z"/>
		</g>
		<g>
			<path fill="#D1D3D4" d="M812.502,847.412c-1.161,0-2.106-0.945-2.106-2.107v-24.244h-24.835c-1.161,0-2.106-0.945-2.106-2.105
				v-14.613c0-1.162,0.945-2.107,2.106-2.107h41.554c1.162,0,2.106,0.945,2.106,2.107v40.963c0,1.162-0.944,2.107-2.106,2.107
				H812.502z"/>
		</g>
		<g>
			<path fill="#D1D3D4" d="M839.444,847.412c-1.162,0-2.106-0.945-2.106-2.107v-14.611c0-1.162,0.944-2.109,2.106-2.109h14.612
				c1.162,0,2.107,0.947,2.107,2.109v14.611c0,1.162-0.945,2.107-2.107,2.107H839.444z"/>
		</g>
		<g>
			<path fill="#D1D3D4" d="M866.386,847.412c-1.161,0-2.105-0.945-2.105-2.107v-14.611c0-1.162,0.944-2.109,2.105-2.109h14.613
				c1.162,0,2.105,0.947,2.105,2.109v14.611c0,1.162-0.943,2.107-2.105,2.107H866.386z"/>
		</g>
		<g>
			<path fill="#D1D3D4" d="M893.329,847.412c-1.162,0-2.106-0.945-2.106-2.107v-14.611c0-1.162,0.944-2.109,2.106-2.109h14.613
				c1.161,0,2.105,0.947,2.105,2.109v14.611c0,1.162-0.944,2.107-2.105,2.107H893.329z"/>
		</g>
		<g>
			<path fill="#D1D3D4" d="M516.14,873.764c-1.162,0-2.108-0.945-2.108-2.107v-14.613c0-1.162,0.946-2.107,2.108-2.107h14.611
				c1.162,0,2.107,0.945,2.107,2.107v14.613c0,1.162-0.945,2.107-2.107,2.107H516.14z"/>
		</g>
		<g>
			<path fill="#D1D3D4" d="M543.083,873.764c-1.164,0-2.109-0.945-2.109-2.107v-14.613c0-1.162,0.945-2.107,2.109-2.107h14.61
				c1.162,0,2.107,0.945,2.107,2.107v14.613c0,1.162-0.945,2.107-2.107,2.107H543.083z"/>
		</g>
		<g>
			<path fill="#D1D3D4" d="M570.023,873.764c-1.161,0-2.106-0.945-2.106-2.107v-14.613c0-1.162,0.945-2.107,2.106-2.107h14.612
				c1.162,0,2.105,0.945,2.105,2.107v14.613c0,1.162-0.943,2.107-2.105,2.107H570.023z"/>
		</g>
		<g>
			<path fill="#D1D3D4" d="M596.966,873.764c-1.162,0-2.107-0.945-2.107-2.107v-14.613c0-1.162,0.945-2.107,2.107-2.107h14.611
				c1.162,0,2.107,0.945,2.107,2.107v14.613c0,1.162-0.945,2.107-2.107,2.107H596.966z"/>
		</g>
		<g>
			<path fill="#D1D3D4" d="M623.907,873.764c-1.161,0-2.106-0.945-2.106-2.107v-14.613c0-1.162,0.945-2.107,2.106-2.107h14.613
				c1.161,0,2.105,0.945,2.105,2.107v14.613c0,1.162-0.944,2.107-2.105,2.107H623.907z"/>
		</g>
		<g>
			<path fill="#D1D3D4" d="M650.85,873.764c-1.162,0-2.106-0.945-2.106-2.107v-14.613c0-1.162,0.944-2.107,2.106-2.107h14.612
				c1.162,0,2.107,0.945,2.107,2.107v14.613c0,1.162-0.945,2.107-2.107,2.107H650.85z"/>
		</g>
		<g>
			<path fill="#D1D3D4" d="M677.792,873.764c-1.162,0-2.107-0.945-2.107-2.107v-14.613c0-1.162,0.945-2.107,2.107-2.107h14.612
				c1.162,0,2.106,0.945,2.106,2.107v14.613c0,1.162-0.944,2.107-2.106,2.107H677.792z"/>
		</g>
		<g>
			<path fill="#D1D3D4" d="M704.734,873.764c-1.162,0-2.107-0.945-2.107-2.107v-14.613c0-1.162,0.945-2.107,2.107-2.107h14.612
				c1.161,0,2.106,0.945,2.106,2.107v14.613c0,1.162-0.945,2.107-2.106,2.107H704.734z"/>
		</g>
		<g>
			<path fill="#D1D3D4" d="M731.677,873.764c-1.163,0-2.107-0.945-2.107-2.107v-14.613c0-1.162,0.944-2.107,2.107-2.107h14.611
				c1.16,0,2.106,0.945,2.106,2.107v14.613c0,1.162-0.946,2.107-2.106,2.107H731.677z"/>
		</g>
		<g>
			<path fill="#D1D3D4" d="M758.617,873.764c-1.161,0-2.105-0.945-2.105-2.107v-14.613c0-1.162,0.944-2.107,2.105-2.107h14.614
				c1.161,0,2.105,0.945,2.105,2.107v14.613c0,1.162-0.944,2.107-2.105,2.107H758.617z"/>
		</g>
		<g>
			<path fill="#D1D3D4" d="M812.502,873.764c-1.161,0-2.106-0.945-2.106-2.107v-14.613c0-1.162,0.945-2.107,2.106-2.107h14.612
				c1.162,0,2.106,0.945,2.106,2.107v14.613c0,1.162-0.944,2.107-2.106,2.107H812.502z"/>
		</g>
		<g>
			<path fill="#D1D3D4" d="M866.386,873.764c-1.161,0-2.105-0.945-2.105-2.107v-14.613c0-1.162,0.944-2.107,2.105-2.107h14.613
				c1.162,0,2.105,0.945,2.105,2.107v14.613c0,1.162-0.943,2.107-2.105,2.107H866.386z"/>
		</g>
		<g>
			<path fill="#D1D3D4" d="M893.329,873.764c-1.162,0-2.106-0.945-2.106-2.107v-14.613c0-1.162,0.944-2.107,2.106-2.107h14.613
				c1.161,0,2.105,0.945,2.105,2.107v14.613c0,1.162-0.944,2.107-2.105,2.107H893.329z"/>
		</g>
		<g>
			<path fill="#D1D3D4" d="M516.14,900.115c-1.162,0-2.108-0.945-2.108-2.107v-14.613c0-1.162,0.946-2.105,2.108-2.105h14.611
				c1.162,0,2.107,0.943,2.107,2.105v14.613c0,1.162-0.945,2.107-2.107,2.107H516.14z"/>
		</g>
		<g>
			<path fill="#D1D3D4" d="M543.083,900.115c-1.164,0-2.109-0.945-2.109-2.107v-14.613c0-1.162,0.945-2.105,2.109-2.105h41.553
				c1.162,0,2.105,0.943,2.105,2.105v14.613c0,1.162-0.943,2.107-2.105,2.107H543.083z"/>
		</g>
		<g>
			<path fill="#D1D3D4" d="M596.966,900.115c-1.162,0-2.107-0.945-2.107-2.107v-14.613c0-1.162,0.945-2.105,2.107-2.105h149.322
				c1.16,0,2.106,0.943,2.106,2.105v14.613c0,1.162-0.946,2.107-2.106,2.107H596.966z"/>
		</g>
		<g>
			<path fill="#D1D3D4" d="M758.617,900.115c-1.161,0-2.105-0.945-2.105-2.107v-14.613c0-1.162,0.944-2.105,2.105-2.105h41.556
				c1.162,0,2.106,0.943,2.106,2.105v14.613c0,1.162-0.944,2.107-2.106,2.107H758.617z"/>
		</g>
		<g>
			<path fill="#D1D3D4" d="M812.502,900.115c-1.161,0-2.106-0.945-2.106-2.107v-14.613c0-1.162,0.945-2.105,2.106-2.105h14.612
				c1.162,0,2.106,0.943,2.106,2.105v14.613c0,1.162-0.944,2.107-2.106,2.107H812.502z"/>
		</g>
		<g>
			<path fill="#D1D3D4" d="M839.444,900.115c-1.162,0-2.106-0.945-2.106-2.107v-14.613c0-1.162,0.944-2.105,2.106-2.105h14.612
				c1.162,0,2.107,0.943,2.107,2.105v14.613c0,1.162-0.945,2.107-2.107,2.107H839.444z"/>
		</g>
		<g>
			<path fill="#D1D3D4" d="M866.386,900.115c-1.161,0-2.105-0.945-2.105-2.107v-14.613c0-1.162,0.944-2.105,2.105-2.105h14.613
				c1.162,0,2.105,0.943,2.105,2.105v14.613c0,1.162-0.943,2.107-2.105,2.107H866.386z"/>
		</g>
		<g>
			<path fill="#D1D3D4" d="M893.329,900.115c-1.162,0-2.106-0.945-2.106-2.107v-14.613c0-1.162,0.944-2.105,2.106-2.105h14.613
				c1.161,0,2.105,0.943,2.105,2.105v14.613c0,1.162-0.944,2.107-2.105,2.107H893.329z"/>
		</g>
	</g>
	<g>
		<path fill="#FFFFFF" d="M980.61,719.809l17.49,7.117c1.235-2.234,3.955-3.256,6.379-2.27l19.941,8.115
			c2.615,1.064,3.873,4.047,2.808,6.662c-1.063,2.615-4.048,3.873-6.663,2.811l-19.941-8.117c-2.424-0.986-3.656-3.617-2.981-6.08
			l-17.489-7.117c-5.916,15.391,1.547,32.75,16.887,38.994l37.491,15.26c15.526,6.318,33.241-1.146,39.562-16.676
			s-1.148-33.24-16.676-39.559l-37.489-15.26C1004.589,697.445,987.123,704.66,980.61,719.809z"/>
		<path fill="#717274" d="M997.815,727.465c0.077-0.193,0.187-0.361,0.285-0.539l-17.49-7.117c-0.081,0.186-0.168,0.365-0.244,0.553
			c-0.076,0.189-0.141,0.379-0.213,0.568l17.489,7.117C997.697,727.854,997.736,727.656,997.815,727.465z"/>
		<path fill="#D1D3D4" d="M998.101,726.926c-0.099,0.178-0.208,0.346-0.285,0.539c-0.079,0.191-0.118,0.389-0.173,0.582
			c-0.675,2.463,0.558,5.094,2.981,6.08l19.941,8.117c2.615,1.063,5.6-0.195,6.663-2.811c1.065-2.615-0.192-5.598-2.808-6.662
			l-19.941-8.115C1002.056,723.67,999.336,724.691,998.101,726.926z"/>
	</g>
	<path fill="none" stroke="#FFFFFF" stroke-miterlimit="10" d="M563.857,766.168c0,0,0-10.998,0-24.439s-12.601-24.439-28-24.439
		h-24.027c-15.4,0-28-12.6-28-28v-53.24"/>
	<path fill="none" stroke="#FFFFFF" stroke-miterlimit="10" d="M980.364,720.467l-41.098-17.465
		c-14.174-6.025-21.162-22.682-15.531-37.014l11.762-29.939"/>
	<g>
		<path fill="#D86051" d="M1253.605,132.128c28.379,15.48,47.634,45.583,47.634,80.187c0,50.414-40.869,91.283-91.284,91.283
			c-13.705,0-26.692-3.039-38.358-8.451c12.968,7.074,27.838,11.098,43.65,11.098c50.414,0,91.284-40.869,91.284-91.284
			C1306.531,178.25,1284.851,146.622,1253.605,132.128z"/>
		<path fill="#F26C5B" d="M1301.239,212.314c0-34.604-19.255-64.707-47.634-80.187c-11.665-5.412-24.653-8.452-38.358-8.452
			c-50.414,0-91.284,40.869-91.284,91.284c0,34.603,19.255,64.706,47.634,80.187c11.666,5.413,24.653,8.451,38.358,8.451
			C1260.37,303.598,1301.239,262.729,1301.239,212.314z"/>
		<g>
			<path fill="#EFEFF0" d="M1268.192,171.772c6.91,10.679,10.938,23.396,10.938,37.063c0,37.738-30.593,68.331-68.331,68.331
				c-21.354,0-40.415-9.801-52.944-25.144c12.172,18.81,33.321,31.269,57.393,31.269c37.738,0,68.33-30.594,68.33-68.331
				C1283.577,198.577,1277.806,183.545,1268.192,171.772z"/>
			<path fill="#FFFFFF" d="M1210.799,277.166c37.738,0,68.331-30.593,68.331-68.331c0-13.667-4.027-26.384-10.938-37.063
				c-12.53-15.343-31.591-25.144-52.945-25.144c-37.738,0-68.33,30.594-68.33,68.331c0,13.666,4.027,26.384,10.938,37.063
				C1170.384,267.365,1189.444,277.166,1210.799,277.166z"/>
		</g>
		<path fill="#39393A" d="M1222.1,210.575c-0.722,0.932-2.062,1.1-2.993,0.377l0,0c-0.931-0.722-1.1-2.061-0.377-2.992
			l26.333-33.931c0.723-0.93,2.063-1.1,2.993-0.377l0,0c0.931,0.724,1.1,2.063,0.378,2.993L1222.1,210.575z"/>
		<path fill="#39393A" d="M1181.841,197.614c-1.017-0.597-1.356-1.903-0.76-2.92l0,0c0.596-1.017,1.902-1.356,2.918-0.761
			l23.674,13.989c1.016,0.596,1.356,1.902,0.76,2.919l0,0c-0.597,1.016-1.903,1.357-2.919,0.76L1181.841,197.614z"/>
		<path fill="#39393A" d="M1219.878,207.241c0.533,1.178,0.838,2.482,0.838,3.859c0,5.176-4.195,9.372-9.37,9.372
			c-1.824,0-3.521-0.53-4.962-1.432c1.473,3.248,4.734,5.511,8.532,5.511c5.176,0,9.371-4.195,9.371-9.371
			C1224.287,211.828,1222.522,208.896,1219.878,207.241z"/>
		<path fill="#414042" d="M1220.716,211.1c0-1.376-0.305-2.681-0.838-3.859c-1.44-0.902-3.137-1.432-4.962-1.432
			c-5.175,0-9.37,4.195-9.37,9.371c0,1.377,0.305,2.682,0.838,3.86c1.44,0.901,3.138,1.432,4.962,1.432
			C1216.521,220.472,1220.716,216.276,1220.716,211.1z"/>
	</g>
	<g>
		<path fill="#FFFFFF" d="M469.953,576.924c0,0,4.388,85.375-4.935,128.691l-89.924-3.84c0,0,10.318-102.273,10.97-128.234
			L469.953,576.924z"/>
		<path fill="#E6E7E8" d="M395.444,582.965l65,3.836c0,0,2,24,0,41l-68.5-4.5L395.444,582.965z"/>
		<polygon fill="#E6E7E8" points="461.333,636.467 461.333,647.133 390.944,643.133 391.944,631.773 		"/>
		
			<rect x="387.548" y="684.051" transform="matrix(-0.9987 -0.0509 0.0509 -0.9987 774.6867 1396.8473)" fill="#E6E7E8" width="35.195" height="9"/>
	</g>
	<g>
		<path fill="#FFFFFF" d="M1170.159,835c-13.929,0-25.26-11.33-25.26-25.26c0-13.926,11.331-25.256,25.26-25.256h2.82l0.021,47.203
			l0.574,3.303L1170.159,835z M1167.338,790.328c-9.485,1.371-16.797,9.555-16.797,19.412c0,9.859,7.312,18.043,16.797,19.416
			V790.328z"/>
	</g>
	<path fill="#615F44" d="M1278.851,473.241h-50.14c-6.646,0-12.032,5.389-12.032,12.035v1.094c0,6.646,5.387,12.035,12.032,12.035
		h50.14c6.646,0,12.033-5.389,12.033-12.035v-1.094C1290.884,478.629,1285.496,473.241,1278.851,473.241z"/>
	<path fill="#B2AB7E" d="M1352.239,445.559v-29.672c0-6.91-5.598-12.506-12.503-12.506h-171.91c-6.906,0-12.504,5.596-12.504,12.506
		v29.672h3.702h189.515H1352.239z"/>
	<polygon fill="#9A946D" points="1348.539,445.559 1159.024,445.559 1159.024,449.604 1348.539,460.885 	"/>
	<path fill="#A69F75" d="M1159.024,449.604v128.859c0,6.648,5.387,12.035,12.032,12.035h165.449c6.646,0,12.033-5.387,12.033-12.035
		V460.885L1159.024,449.604z M1290.884,486.37c0,6.646-5.388,12.035-12.033,12.035h-50.14c-6.646,0-12.032-5.389-12.032-12.035
		v-1.094c0-6.646,5.387-12.035,12.032-12.035h50.14c6.646,0,12.033,5.389,12.033,12.035V486.37z"/>
	<path fill="#08BBE6" d="M1101.487,698.07c0,6.602,5.352,11.951,11.953,11.951h218.384c1.372,0,2.685-0.242,3.912-0.668
		c-4.678-1.621-8.041-6.055-8.041-11.283c0-2.779,0.956-5.326,2.548-7.354H1104.03
		C1102.442,692.746,1101.487,695.293,1101.487,698.07z"/>
	<path fill="#10A8CE" d="M1113.44,686.117c-3.825,0-7.223,1.803-9.41,4.6h226.213c1.404-1.789,3.301-3.172,5.493-3.932
		c-1.228-0.426-2.54-0.668-3.912-0.668h-199.087H1113.44z"/>
	<path fill="#F26C5B" d="M1120.785,674.166c0,6.602,5.351,11.951,11.952,11.951h199.087h19.298c1.371,0,2.685-0.242,3.911-0.668
		c-4.677-1.621-8.04-6.055-8.04-11.283c0-2.822,0.985-5.408,2.622-7.449h-226.217
		C1121.767,668.76,1120.785,671.348,1120.785,674.166z"/>
	<path fill="#DB6253" d="M1123.398,666.717h226.217c1.396-1.742,3.265-3.09,5.418-3.836c-1.227-0.426-2.54-0.668-3.911-0.668H1327
		h-194.263C1128.954,662.213,1125.589,663.975,1123.398,666.717z"/>
	<path fill="#F8ED39" d="M1096.663,650.26c0,6.602,5.352,11.953,11.953,11.953h24.121H1327c1.372,0,2.685-0.244,3.911-0.668
		c-4.677-1.623-8.04-6.055-8.04-11.285c0-2.865,1.015-5.488,2.697-7.543h-226.221
		C1097.671,644.773,1096.663,647.398,1096.663,650.26z"/>
	<path fill="#DAD337" d="M1108.616,638.307c-3.74,0-7.076,1.721-9.269,4.41h226.221c1.388-1.697,3.229-3.008,5.343-3.742
		c-1.227-0.424-2.539-0.668-3.911-0.668h-194.263H1108.616z"/>
	<path fill="#F26C5B" d="M1120.785,626.355c0,6.602,5.351,11.951,11.952,11.951H1327h24.122c1.371,0,2.685-0.242,3.911-0.668
		c-4.677-1.621-8.04-6.055-8.04-11.283c0-2.908,1.043-5.57,2.771-7.639h-226.219
		C1121.823,620.787,1120.785,623.449,1120.785,626.355z"/>
	<path fill="#DB6253" d="M1132.737,614.402c-3.696,0-6.998,1.68-9.191,4.314h226.219c1.379-1.652,3.193-2.928,5.269-3.646
		c-1.227-0.426-2.54-0.668-3.911-0.668h-199.087H1132.737z"/>
	<path fill="#08BBE6" d="M1366.29,602.449c0-3.115,1.2-5.943,3.154-8.066h-226.211c-1.951,2.127-3.151,4.953-3.151,8.066
		c0,6.602,5.352,11.953,11.953,11.953h199.087h19.297c1.372,0,2.685-0.242,3.912-0.668
		C1369.653,612.113,1366.29,607.68,1366.29,602.449z"/>
	<path fill="#10A8CE" d="M1374.331,591.166c-1.228-0.426-2.54-0.668-3.912-0.668h-218.384c-3.487,0-6.616,1.502-8.802,3.885h226.211
		C1370.771,592.941,1372.44,591.82,1374.331,591.166z"/>
	<path fill="#62606C" d="M1274.396,867.518c0,3.791-3.073,6.863-6.864,6.863h-69.725c-3.79,0-6.864-3.072-6.864-6.863l0,0
		c0-3.791,3.074-6.863,6.864-6.863h69.725C1271.322,860.654,1274.396,863.727,1274.396,867.518L1274.396,867.518z"/>
	<path fill="#62606C" d="M282.861,817.854c0,3.791-3.073,6.865-6.864,6.865h-195.5c-3.791,0-6.864-3.074-6.864-6.865l0,0
		c0-3.789,3.073-6.863,6.864-6.863h195.5C279.788,810.99,282.861,814.064,282.861,817.854L282.861,817.854z"/>
	<path fill="#FFFFFF" d="M1228.074,784.484h-55.503v6.891v44.479c0,0,0.022,0.152,0.063,0.387
		c0.544,3.113,5.186,25.293,27.688,29.135h27.752h27.752c24.209-4.133,27.751-29.521,27.751-29.521v-51.369H1228.074z"/>
	<g>
		<path fill="#FFFFFF" d="M414.191,857.666l-24.366-122.158c-1.56-7.816-11.177-6.674-11.177-6.674l-25.257,5.037l-25.257,5.037
			c0,0-9.318,2.635-7.759,10.453l24.368,122.156c0,0,1.359,7.848,10.37,6.051l25.91-5.168l25.911-5.168
			C415.948,865.434,414.191,857.666,414.191,857.666z"/>
		<path fill="#6E6E6E" d="M393.42,773.988l-5.691-28.535l-61.604,12.289l13.574,68.055
			C353.31,804.414,371.754,786.686,393.42,773.988z"/>
		<path fill="#4D4D4D" d="M339.699,825.797l7.168,35.922l61.602-12.289l-15.048-75.441
			C371.754,786.686,353.31,804.414,339.699,825.797z"/>
		<path fill="#E0E0E0" d="M383.798,863.648c0.477,2.395-1.078,4.729-3.482,5.207c-2.399,0.479-4.73-1.078-5.208-3.475
			s1.078-4.73,3.477-5.209C380.989,859.691,383.32,861.248,383.798,863.648z"/>
		<g>
			
				<rect x="344.492" y="743.257" transform="matrix(0.9807 -0.1955 0.1955 0.9807 -138.5815 83.8482)" fill="#BCBEC0" width="21.754" height="1.062"/>
		</g>
	</g>
	<g>
		<path fill="#C8A480" d="M956.195,772.6l0.139,13.182c0.399,1.076,1.589,1.623,2.668,1.225c1.077-0.396,1.624-1.594,1.228-2.668
			l-2.724-11.279C956.989,773.068,956.522,772.826,956.195,772.6z"/>
		<path fill="#B39272" d="M967.966,781.471l-8.54-10.16c-0.213,0.5-0.444,0.879-0.687,1.143l5.379,10.441
			c0.402,1.076,1.598,1.623,2.672,1.227c1.074-0.4,1.622-1.594,1.225-2.668L967.966,781.471z"/>
		<path fill="#C29F7C" d="M957.506,773.059l2.724,11.279c0.396,1.074,1.592,1.625,2.663,1.223c1.078-0.398,1.628-1.59,1.226-2.666
			l-5.379-10.441C958.337,772.895,957.909,773.057,957.506,773.059z"/>
		<path fill="#414042" d="M956.144,767.408l0.052,5.191c0.327,0.227,0.794,0.469,1.311,0.459c0.223,0,0.457-0.059,0.688-0.182
			l-2.008-5.416L956.144,767.408z"/>
		<path fill="#323133" d="M959.426,771.311l-3.239-3.85l2.008,5.416c0.184-0.094,0.367-0.227,0.545-0.424
			C958.981,772.189,959.213,771.811,959.426,771.311z"/>
		<path fill="#504F52" d="M1007.057,910.701l-4.394,0.246l4.491,12.109c0.087,0.242,0.204,0.463,0.319,0.686l4.326-0.246
			L1007.057,910.701z"/>
		<path fill="#FF6348" d="M960.229,784.338c0.396,1.074-0.15,2.271-1.228,2.668c-1.079,0.398-2.269-0.148-2.668-1.225l-0.048,0.018
			l45.481,122.729l4.39-0.248L960.229,784.338z"/>
		<polygon fill="#FFFFFF" points="1006.157,908.279 1001.768,908.527 1002.663,910.947 1007.057,910.701 		"/>
		<path fill="#323133" d="M1014.397,906.617l-3.45,2.639l4.745,12.799l3.396-2.6c-0.055-0.248-0.116-0.498-0.207-0.746
			L1014.397,906.617z"/>
		<polygon fill="#C7C7C7" points="1010.947,909.256 1014.397,906.617 1013.504,904.197 1010.052,906.834 		"/>
		<path fill="#D1513B" d="M1013.504,904.197l-45.489-122.744c0.397,1.074-0.15,2.268-1.225,2.668
			c-1.074,0.396-2.27-0.15-2.672-1.227l45.934,123.939L1013.504,904.197z"/>
		<polygon fill="#E0E0E0" points="1008.104,907.555 1006.157,908.279 1007.057,910.701 1009.003,909.979 1010.947,909.256 
			1010.052,906.834 		"/>
		<polygon fill="#414042" points="1007.057,910.701 1011.8,923.496 1013.747,922.775 1015.692,922.055 1010.947,909.256 
			1009.003,909.979 		"/>
		<path fill="#E65940" d="M1008.104,907.555l1.948-0.721l-45.934-123.939c0.402,1.076-0.147,2.268-1.226,2.666
			c-1.071,0.402-2.267-0.148-2.663-1.223l45.928,123.941L1008.104,907.555z"/>
	</g>
	<g>
		<g>
			<rect x="133.958" y="380.544" fill="#58595B" width="93.123" height="286.388"/>
		</g>
		<g>
			<rect x="227.081" y="380.544" fill="#4C4A4D" width="93.119" height="286.388"/>
		</g>
		<g>
			<path fill="#6E6F73" d="M281.767,585.213c0,30.209-24.485,54.693-54.686,54.693c-30.213,0-54.693-24.484-54.693-54.693
				c0-30.207,24.48-54.691,54.693-54.691C257.282,530.521,281.767,555.006,281.767,585.213z"/>
		</g>
		<g>
			<path fill="#434445" d="M269.575,585.213c0,23.471-19.026,42.496-42.494,42.496c-23.477,0-42.498-19.025-42.498-42.496
				c0-23.469,19.021-42.494,42.498-42.494C250.549,542.719,269.575,561.744,269.575,585.213z"/>
		</g>
		<g>
			<path fill="#343635" d="M261.894,585.213c0,19.225-15.59,34.813-34.813,34.813c-19.23,0-34.813-15.588-34.813-34.813
				s15.582-34.811,34.813-34.811C246.304,550.402,261.894,565.988,261.894,585.213z"/>
		</g>
		<g>
			<path fill="#5A5B5D" d="M250.403,585.213c0,12.877-10.443,23.32-23.322,23.32s-23.322-10.443-23.322-23.32
				c0-12.875,10.443-23.318,23.322-23.318S250.403,572.338,250.403,585.213z"/>
		</g>
		<g>
			<path fill="#6D6E72" d="M243.263,585.213c0,8.938-7.248,16.184-16.182,16.184c-8.941,0-16.186-7.246-16.186-16.184
				c0-8.936,7.244-16.18,16.186-16.18C236.015,569.033,243.263,576.277,243.263,585.213z"/>
		</g>
		<g>
			<path fill="#6E6F73" d="M281.767,462.258c0,30.208-24.485,54.693-54.686,54.693c-30.213,0-54.693-24.484-54.693-54.693
				c0-30.207,24.48-54.691,54.693-54.691C257.282,407.567,281.767,432.051,281.767,462.258z"/>
		</g>
		<g>
			<path fill="#434445" d="M269.575,462.258c0,23.469-19.026,42.496-42.494,42.496c-23.477,0-42.498-19.027-42.498-42.496
				s19.021-42.494,42.498-42.494C250.549,419.764,269.575,438.79,269.575,462.258z"/>
		</g>
		<g>
			<path fill="#343635" d="M261.894,462.258c0,19.225-15.59,34.812-34.813,34.812c-19.23,0-34.813-15.587-34.813-34.812
				s15.582-34.811,34.813-34.811C246.304,427.448,261.894,443.034,261.894,462.258z"/>
		</g>
		<g>
			<path fill="#5A5B5D" d="M250.403,462.258c0,12.877-10.443,23.32-23.322,23.32s-23.322-10.443-23.322-23.32
				c0-12.875,10.443-23.318,23.322-23.318S250.403,449.383,250.403,462.258z"/>
		</g>
		<g>
			<path fill="#6D6E72" d="M243.263,462.258c0,8.938-7.248,16.184-16.182,16.184c-8.941,0-16.186-7.246-16.186-16.184
				c0-8.936,7.244-16.182,16.186-16.182C236.015,446.077,243.263,453.323,243.263,462.258z"/>
		</g>
	</g>
	<g>
		<g>
			
				<rect x="-24.576" y="598.742" transform="matrix(0.3239 0.9461 -0.9461 0.3239 645.7017 302.9064)" fill="#4C4A4D" width="270.975" height="9"/>
		</g>
		<g>
			
				<rect x="6.331" y="591.796" transform="matrix(0.3353 0.9421 -0.9421 0.3353 660.2537 256.7593)" fill="#4C4A4D" width="283.665" height="9"/>
		</g>
		<g>
			
				<rect x="117.31" y="171.718" transform="matrix(0.8947 0.4466 -0.4466 0.8947 137.6823 -24.9705)" fill="#4C4A4D" width="9" height="215.712"/>
		</g>
		<g>
			
				<rect x="147.602" y="187.72" transform="matrix(0.8929 0.4503 -0.4503 0.8929 149.2056 -36.8723)" fill="#4C4A4D" width="9" height="214.9"/>
		</g>
		<path fill="#F8ED39" d="M311.066,170.046l-39.629,75.024c5.916,3.133,12.653,4.924,19.814,4.924
			c23.438,0,42.436-18.999,42.436-42.435C333.687,191.283,324.514,177.164,311.066,170.046z"/>
		<g>
			<path fill="#DAD337" d="M291.191,241.787c-5.169,0-10.412-1.174-15.336-3.652c-1.48-0.745-2.076-2.549-1.331-4.028
				c0.745-1.48,2.548-2.074,4.028-1.331c13.905,7,30.913,1.381,37.912-12.522c0.745-1.48,2.548-2.075,4.029-1.332
				c1.48,0.746,2.076,2.549,1.33,4.029C315.815,234.887,303.723,241.787,291.191,241.787z"/>
		</g>
		<path fill="#0DA2C8" d="M215.174,187.507l-47-25.333c-7.842-4.021-10.102-12.404-10.663-18.428
			c-6.631,14.799-0.718,32.405,13.83,40.088l29.137,15.392c-2.571,35.794,14.812,71.423,47.228,90.772l11.3-21.395
			C213.418,239.318,215.174,187.507,215.174,187.507z"/>
		<path fill="#08BBE6" d="M237.11,129.875l-29.138-15.391c-15.154-8.006-33.924-2.208-41.926,12.944l-7.648,14.481
			c-0.32,0.605-0.61,1.219-0.887,1.836c0.561,6.023,2.821,14.406,10.663,18.428l47,25.333c0,0-1.756,51.812,43.833,81.097
			l12.43-23.533l39.629-75.024l27.643-52.335C304.453,101.844,265.228,107.569,237.11,129.875z"/>
		<path fill="#F37565" d="M117.462,425.397c0,27.43-22.235,49.67-49.666,49.67c-27.431,0-49.667-22.24-49.667-49.67
			c0-27.426,22.235-49.664,49.667-49.664C95.227,375.733,117.462,397.971,117.462,425.397z"/>
		<path fill="#CD6255" d="M76.281,452.893c-4.688,4.688-12.285,4.688-16.971,0l-19.008-19.008c-4.687-4.686-4.687-12.283,0-16.971
			l19.008-19.008c4.686-4.686,12.284-4.686,16.97,0l19.009,19.008c4.686,4.688,4.686,12.285,0,16.971L76.281,452.893z"/>
		<path fill="#08BBE6" d="M245.593,814.359c0,0.635-0.034,1.262-0.048,1.893h30.654c-2.689-51.477-45.274-92.387-97.421-92.387
			c-12.418,0-24.292,2.324-35.217,6.555c5.337-1.043,10.847-1.604,16.489-1.604C207.294,728.816,245.593,767.117,245.593,814.359z"
			/>
		<path fill="#0DA2C8" d="M81.357,816.252h164.188c0.014-0.631,0.048-1.258,0.048-1.893c0-47.242-38.299-85.543-85.542-85.543
			c-5.643,0-11.152,0.561-16.489,1.604C108.613,743.953,83.405,777.035,81.357,816.252z"/>
	</g>
</g>
</svg>
