<svg width="71" height="71" viewBox="0 0 71 71" fill="none" xmlns="http://www.w3.org/2000/svg">
<rect width="71" height="71" fill="white"/>
<path d="M39.9194 31.0806C46.8276 37.9887 52.5147 44.7808 56.1271 50.1677C57.9368 52.8664 59.2036 55.1799 59.8516 56.9595C60.1763 57.8515 60.33 58.5679 60.34 59.1087C60.35 59.6484 60.218 59.9259 60.072 60.072C59.9259 60.218 59.6484 60.35 59.1087 60.34C58.5679 60.33 57.8515 60.1763 56.9595 59.8515C55.1799 59.2036 52.8664 57.9368 50.1677 56.1271C44.7808 52.5147 37.9887 46.8275 31.0806 39.9194C24.1725 33.0113 18.4853 26.2192 14.8729 20.8323C13.0632 18.1336 11.7964 15.8201 11.1485 14.0405C10.8237 13.1485 10.6701 12.4321 10.66 11.8913C10.65 11.3516 10.782 11.0741 10.928 10.928C11.0741 10.782 11.3516 10.65 11.8914 10.66C12.4322 10.67 13.1485 10.8237 14.0405 11.1485C15.8201 11.7964 18.1336 13.0632 20.8323 14.8729C26.2192 18.4853 33.0113 24.1725 39.9194 31.0806Z" stroke="black" stroke-width="1.5"/>
<path d="M35.5 29.25C45.2696 29.25 54.0937 30.0313 60.4572 31.2861C63.6451 31.9147 66.1767 32.6548 67.8933 33.455C68.7537 33.8561 69.3689 34.254 69.7584 34.6293C70.1471 35.0039 70.25 35.2935 70.25 35.5C70.25 35.7065 70.1471 35.9961 69.7584 36.3707C69.3689 36.746 68.7537 37.1439 67.8933 37.545C66.1767 38.3452 63.6451 39.0853 60.4572 39.7139C54.0937 40.9687 45.2696 41.75 35.5 41.75C25.7304 41.75 16.9063 40.9687 10.5428 39.7139C7.35486 39.0853 4.82325 38.3452 3.10667 37.545C2.24632 37.1439 1.63114 36.746 1.24165 36.3707C0.852907 35.9961 0.75 35.7065 0.75 35.5C0.75 35.2935 0.852907 35.0039 1.24165 34.6293C1.63114 34.254 2.24632 33.8561 3.10667 33.455C4.82325 32.6548 7.35486 31.9147 10.5428 31.2861C16.9063 30.0313 25.7304 29.25 35.5 29.25Z" stroke="black" stroke-width="1.5"/>
<path d="M29.25 35.5C29.25 25.7304 30.0313 16.9063 31.2861 10.5428C31.9147 7.35486 32.6548 4.82326 33.455 3.10667C33.8561 2.24632 34.254 1.63113 34.6293 1.24165C35.0039 0.852905 35.2935 0.75 35.5 0.75C35.7065 0.75 35.9961 0.852905 36.3707 1.24165C36.746 1.63113 37.1439 2.24632 37.545 3.10667C38.3452 4.82326 39.0853 7.35486 39.7139 10.5428C40.9687 16.9063 41.75 25.7304 41.75 35.5C41.75 45.2696 40.9687 54.0937 39.7139 60.4572C39.0853 63.6451 38.3452 66.1767 37.545 67.8933C37.1439 68.7537 36.746 69.3689 36.3707 69.7584C35.9961 70.1471 35.7065 70.25 35.5 70.25C35.2935 70.25 35.0039 70.1471 34.6293 69.7584C34.254 69.3689 33.8561 68.7537 33.455 67.8933C32.6548 66.1767 31.9147 63.6451 31.2861 60.4572C30.0313 54.0937 29.25 45.2696 29.25 35.5Z" stroke="black" stroke-width="1.5"/>
<path d="M39.9194 39.9194C33.0113 46.8276 26.2193 52.5147 20.8323 56.1271C18.1336 57.9368 15.8202 59.2036 14.0405 59.8516C13.1485 60.1763 12.4322 60.33 11.8914 60.34C11.3516 60.35 11.0741 60.218 10.9281 60.072C10.782 59.9259 10.65 59.6484 10.66 59.1087C10.6701 58.5679 10.8237 57.8515 11.1485 56.9595C11.7964 55.1799 13.0632 52.8664 14.8729 50.1677C18.4854 44.7808 24.1725 37.9887 31.0806 31.0806C37.9887 24.1725 44.7808 18.4853 50.1677 14.8729C52.8664 13.0632 55.1799 11.7964 56.9596 11.1485C57.8515 10.8237 58.5679 10.6701 59.1087 10.66C59.6484 10.65 59.926 10.782 60.072 10.928C60.218 11.0741 60.35 11.3516 60.34 11.8914C60.33 12.4322 60.1763 13.1485 59.8516 14.0405C59.2036 15.8201 57.9368 18.1336 56.1271 20.8323C52.5147 26.2192 46.8276 33.0113 39.9194 39.9194Z" stroke="black" stroke-width="1.5"/>
</svg>
